HIERARCHY
ROOT Hips
{
  OFFSET 379.782 92.2786 290.355
  CHANNELS 6 Xposition Yposition Zposition Zrotation Xrotation Yrotation
  JOINT RightUpLeg
  {
    OFFSET -9.318 -1.59997 -0.0255656
    CHANNELS 3 Zrotation Xrotation Yrotation
    JOINT RightLeg
    {
      OFFSET -0.136975 -41.8813 0.0405081
      CHANNELS 3 Zrotation Xrotation Yrotation
      JOINT RightFoot
      {
        OFFSET -1.0807 -41.6587 0.586438
        CHANNELS 3 Zrotation Xrotation Yrotation
        End Site
        {
          OFFSET 0 -7.69 17.5
        }
      }
    }
  }
  JOINT LeftUpLeg
  {
    OFFSET 9.27787 -1.61286 0.0382806
    CHANNELS 3 Zrotation Xrotation Yrotation
    JOINT LeftLeg
    {
      OFFSET -0.0123215 -41.8896 0.00236418
      CHANNELS 3 Zrotation Xrotation Yrotation
      JOINT LeftFoot
      {
        OFFSET -0.652072 -41.729 -0.18326
        CHANNELS 3 Zrotation Xrotation Yrotation
        End Site
        {
          OFFSET 0 -7.69 17.5
        }
      }
    }
  }
  JOINT Spine
  {
    OFFSET -0.0177341 14.309 -0.0767167
    CHANNELS 3 Zrotation Xrotation Yrotation
    JOINT Spine1
    {
      OFFSET -0.00815137 9.72249 -0.0279754
      CHANNELS 3 Zrotation Xrotation Yrotation
      JOINT Spine2
      {
        OFFSET 0.00254358 10.1098 0.019684
        CHANNELS 3 Zrotation Xrotation Yrotation
        JOINT Spine3
        {
          OFFSET -0.0144201 9.70891 0.00890261
          CHANNELS 3 Zrotation Xrotation Yrotation
          JOINT Neck
          {
            OFFSET 0.0322479 10.3931 -0.0281125
            CHANNELS 3 Zrotation Xrotation Yrotation
            JOINT Head
            {
              OFFSET -0.0385169 9.45764 -0.0313976
              CHANNELS 3 Zrotation Xrotation Yrotation
              End Site
              {
                OFFSET 0 15.95 0
              }
            }
          }
          JOINT RightShoulder
          {
            OFFSET -3.21135 6.91228 0.0181834
            CHANNELS 3 Zrotation Xrotation Yrotation
            JOINT RightArm
            {
              OFFSET -12.78 -0.037075 0.00204326
              CHANNELS 3 Zrotation Xrotation Yrotation
              JOINT RightForeArm
              {
                OFFSET -26.5744 -0.042257 0.00438508
                CHANNELS 3 Zrotation Xrotation Yrotation
                JOINT RightHand
                {
                  OFFSET -25.9747 -0.00246067 0.0950584
                  CHANNELS 3 Zrotation Xrotation Yrotation
                  JOINT RightHandThumb1
                  {
                    OFFSET -2.48905 0.190105 3.12053
                    CHANNELS 3 Zrotation Xrotation Yrotation
                    JOINT RightHandThumb2
                    {
                      OFFSET -3.68274 0 0
                      CHANNELS 3 Zrotation Xrotation Yrotation
                      JOINT RightHandThumb3
                      {
                        OFFSET -2.55832 0 0
                        CHANNELS 3 Zrotation Xrotation Yrotation
                        End Site
                        {
                          OFFSET -2.194 0 0
                        }
                      }
                    }
                  }
                  JOINT RightInHandIndex
                  {
                    OFFSET -3.22368 0.508421 1.97842
                    CHANNELS 3 Zrotation Xrotation Yrotation
                    JOINT RightHandIndex1
                    {
                      OFFSET -5.21684 -0.091368 0.999158
                      CHANNELS 3 Zrotation Xrotation Yrotation
                      JOINT RightHandIndex2
                      {
                        OFFSET -3.61937 0 0
                        CHANNELS 3 Zrotation Xrotation Yrotation
                        JOINT RightHandIndex3
                        {
                          OFFSET -2.0521 0 0
                          CHANNELS 3 Zrotation Xrotation Yrotation
                          End Site
                          {
                            OFFSET -1.805 0 0
                          }
                        }
                      }
                    }
                  }
                  JOINT RightInHandMiddle
                  {
                    OFFSET -3.38211 0.517263 0.756737
                    CHANNELS 3 Zrotation Xrotation Yrotation
                    JOINT RightHandMiddle1
                    {
                      OFFSET -5.17411 -0.084 0.313895
                      CHANNELS 3 Zrotation Xrotation Yrotation
                      JOINT RightHandMiddle2
                      {
                        OFFSET -3.94947 0 0
                        CHANNELS 3 Zrotation Xrotation Yrotation
                        JOINT RightHandMiddle3
                        {
                          OFFSET -2.47579 0 0
                          CHANNELS 3 Zrotation Xrotation Yrotation
                          End Site
                          {
                            OFFSET -1.975 0 0
                          }
                        }
                      }
                    }
                  }
                  JOINT RightInHandRing
                  {
                    OFFSET -3.36516 0.537895 -0.128947
                    CHANNELS 3 Zrotation Xrotation Yrotation
                    JOINT RightHandRing1
                    {
                      OFFSET -4.63474 -0.022105 -0.478947
                      CHANNELS 3 Zrotation Xrotation Yrotation
                      JOINT RightHandRing2
                      {
                        OFFSET -3.44238 0 0
                        CHANNELS 3 Zrotation Xrotation Yrotation
                        JOINT RightHandRing3
                        {
                          OFFSET -2.3881 0 0
                          CHANNELS 3 Zrotation Xrotation Yrotation
                          End Site
                          {
                            OFFSET -1.857 0 0
                          }
                        }
                      }
                    }
                  }
                  JOINT RightInHandPinky
                  {
                    OFFSET -3.16105 0.469368 -1.20179
                    CHANNELS 3 Zrotation Xrotation Yrotation
                    JOINT RightHandPinky1
                    {
                      OFFSET -4.14105 -0.022105 -1.09053
                      CHANNELS 3 Zrotation Xrotation Yrotation
                      JOINT RightHandPinky2
                      {
                        OFFSET -2.75653 0 0
                        CHANNELS 3 Zrotation Xrotation Yrotation
                        JOINT RightHandPinky3
                        {
                          OFFSET -1.74189 0 0
                          CHANNELS 3 Zrotation Xrotation Yrotation
                          End Site
                          {
                            OFFSET -1.645 0 0
                          }
                        }
                      }
                    }
                  }
                }
              }
            }
          }
          JOINT LeftShoulder
          {
            OFFSET 3.18892 6.92664 -0.0245911
            CHANNELS 3 Zrotation Xrotation Yrotation
            JOINT LeftArm
            {
              OFFSET 12.7909 -0.0167212 -0.0450047
              CHANNELS 3 Zrotation Xrotation Yrotation
              JOINT LeftForeArm
              {
                OFFSET 26.5444 0.0404129 -0.0295549
                CHANNELS 3 Zrotation Xrotation Yrotation
                JOINT LeftHand
                {
                  OFFSET 26.0086 0.150694 -0.0470183
                  CHANNELS 3 Zrotation Xrotation Yrotation
                  JOINT LeftHandThumb1
                  {
                    OFFSET 2.48905 0.190105 3.12053
                    CHANNELS 3 Zrotation Xrotation Yrotation
                    JOINT LeftHandThumb2
                    {
                      OFFSET 3.68274 0 0
                      CHANNELS 3 Zrotation Xrotation Yrotation
                      JOINT LeftHandThumb3
                      {
                        OFFSET 2.55832 0 0
                        CHANNELS 3 Zrotation Xrotation Yrotation
                        End Site
                        {
                          OFFSET 2.194 0 0
                        }
                      }
                    }
                  }
                  JOINT LeftInHandIndex
                  {
                    OFFSET 3.22368 0.508421 1.97842
                    CHANNELS 3 Zrotation Xrotation Yrotation
                    JOINT LeftHandIndex1
                    {
                      OFFSET 5.21684 -0.091368 0.999158
                      CHANNELS 3 Zrotation Xrotation Yrotation
                      JOINT LeftHandIndex2
                      {
                        OFFSET 3.61937 0 0
                        CHANNELS 3 Zrotation Xrotation Yrotation
                        JOINT LeftHandIndex3
                        {
                          OFFSET 2.0521 0 0
                          CHANNELS 3 Zrotation Xrotation Yrotation
                          End Site
                          {
                            OFFSET 1.805 0 0
                          }
                        }
                      }
                    }
                  }
                  JOINT LeftInHandMiddle
                  {
                    OFFSET 3.38211 0.517263 0.756737
                    CHANNELS 3 Zrotation Xrotation Yrotation
                    JOINT LeftHandMiddle1
                    {
                      OFFSET 5.17411 -0.084 0.313895
                      CHANNELS 3 Zrotation Xrotation Yrotation
                      JOINT LeftHandMiddle2
                      {
                        OFFSET 3.94947 0 0
                        CHANNELS 3 Zrotation Xrotation Yrotation
                        JOINT LeftHandMiddle3
                        {
                          OFFSET 2.47579 0 0
                          CHANNELS 3 Zrotation Xrotation Yrotation
                          End Site
                          {
                            OFFSET 1.975 0 0
                          }
                        }
                      }
                    }
                  }
                  JOINT LeftInHandRing
                  {
                    OFFSET 3.36516 0.537895 -0.128947
                    CHANNELS 3 Zrotation Xrotation Yrotation
                    JOINT LeftHandRing1
                    {
                      OFFSET 4.63474 -0.022105 -0.478947
                      CHANNELS 3 Zrotation Xrotation Yrotation
                      JOINT LeftHandRing2
                      {
                        OFFSET 3.44238 0 0
                        CHANNELS 3 Zrotation Xrotation Yrotation
                        JOINT LeftHandRing3
                        {
                          OFFSET 2.3881 0 0
                          CHANNELS 3 Zrotation Xrotation Yrotation
                          End Site
                          {
                            OFFSET 1.857 0 0
                          }
                        }
                      }
                    }
                  }
                  JOINT LeftInHandPinky
                  {
                    OFFSET 3.16105 0.469368 -1.20179
                    CHANNELS 3 Zrotation Xrotation Yrotation
                    JOINT LeftHandPinky1
                    {
                      OFFSET 4.14105 -0.022105 -1.09053
                      CHANNELS 3 Zrotation Xrotation Yrotation
                      JOINT LeftHandPinky2
                      {
                        OFFSET 2.75653 0 0
                        CHANNELS 3 Zrotation Xrotation Yrotation
                        JOINT LeftHandPinky3
                        {
                          OFFSET 1.74189 0 0
                          CHANNELS 3 Zrotation Xrotation Yrotation
                          End Site
                          {
                            OFFSET 1.645 0 0
                          }
                        }
                      }
                    }
                  }
                }
              }
            }
          }
        }
      }
    }
  }
}
MOTION
Frames:	4
Frame Time:	0.00833333
384.616 85.2849 273.734 24.9439 0.142025 -115.945 34.8296 -47.7568 49.0579 -4.45756 24.4779 -12.2428 10.0732 11.2296 53.8895 36.3415 -30.7351 18.5705 -27.5891 52.1892 30.8045 -2.97989 -20.8207 41.9887 -6.86996 4.41095 -21.2461 -1.87378 0.356539 -5.52104 -3.06097 0.240718 -8.75382 -0.523926 -0.524433 2.74714 0.365997 -7.36636 43.878 -7.90736 3.3833 25.5381 6.0839 -0.476316 -24.0529 56.4396 -57.4338 29.9431 17.1022 -17.6409 134.937 11.9137 -9.54445 8.17439 28.184 10.7294 19.1592 -2.64697e-15 -1.27222e-14 -10 4.93175e-16 -6.36111e-15 -10 6.36111e-15 -6.36111e-15 7.95139e-15 19.9818 0.871897 2.3964 24 0 -4.77083e-15 20 0 -3.18055e-15 6.36111e-15 -6.36111e-15 7.95139e-15 20 -6.36111e-15 -6.95746e-16 24 -6.36111e-15 -6.36111e-15 20 3.18055e-15 3.18055e-15 6.36111e-15 -6.36111e-15 7.95139e-15 19.9748 -1.02565 -2.81938 24 -6.36111e-15 -7.95139e-15 20 0 -6.36111e-15 6.36111e-15 -6.36111e-15 7.95139e-15 19.7815 -3.00948 -8.30515 24 0 6.36111e-15 20 -3.18055e-15 6.36111e-15 14.4311 -15.097 -42.5324 0.332656 5.85007 -115.975 23.701 -31.3409 -52.2057 -8.45075 14.3214 -17.7233 -28.184 10.7294 -19.1592 4.28361e-15 3.18055e-15 10 -2.10798e-15 -6.36111e-15 10 4.77083e-15 -3.18055e-15 -0 -19.9818 0.871897 -2.3964 -24 -3.18055e-15 -7.95139e-16 -20 3.18055e-15 7.95139e-16 4.77083e-15 -3.18055e-15 -0 -20 6.36111e-15 -3.18055e-15 -24 -3.18055e-15 -3.97569e-15 -20 -3.18055e-15 -3.18055e-15 4.77083e-15 -3.18055e-15 -0 -19.9748 -1.02565 2.81938 -24 6.36111e-15 -5.56597e-15 -20 -3.18055e-15 -2.38542e-15 4.77083e-15 -3.18055e-15 -0 -19.7815 -3.00948 8.30515 -24 0 -1.19271e-15 -20 0 1.59028e-15 
384.765 85.3009 273.974 25.054 0.204337 -115.989 34.9734 -47.9648 49.0993 -4.4671 24.603 -12.1388 10.1157 11.1748 53.8795 36.3501 -31.1396 18.7225 -27.2909 52.4071 30.5987 -2.80461 -20.5789 42.1531 -6.80862 4.35601 -21.1636 -1.85551 0.35697 -5.49672 -3.0324 0.239605 -8.71942 -0.524068 -0.52126 2.74801 0.348735 -7.31306 43.8739 -7.91291 3.44012 25.5674 6.05407 -0.434726 -24.03 56.846 -57.1474 30.048 16.7637 -17.7605 134.785 12.2945 -9.25964 8.68602 28.184 10.7294 19.1592 1.57115e-16 3.18055e-15 -10 2.10798e-15 -6.36111e-15 -10 -6.36111e-15 -3.18055e-15 -1.59028e-15 19.9818 0.871897 2.3964 24 -9.54166e-15 -1.59028e-15 20 -1.27222e-14 -0 -6.36111e-15 -3.18055e-15 -1.59028e-15 20 0 4.07509e-15 24 -6.36111e-15 1.59028e-15 20 -6.36111e-15 -3.18055e-15 -6.36111e-15 -3.18055e-15 -1.59028e-15 19.9748 -1.02565 -2.81938 24 9.54166e-15 4.77083e-15 20 0 6.36111e-15 -6.36111e-15 -3.18055e-15 -1.59028e-15 19.7815 -3.00948 -8.30515 24 0 6.36111e-15 20 3.18055e-15 3.18055e-15 14.4163 -14.9759 -42.5796 0.402452 5.74885 -115.974 23.9404 -31.2383 -51.7031 -8.46257 14.45 -17.7601 -28.184 10.7294 -19.1592 1.12164e-15 -6.36111e-15 10 -3.22962e-15 0 10 -3.18055e-15 -3.18055e-15 -0 -19.9818 0.871897 -2.3964 -24 -3.18055e-15 -3.97569e-15 -20 -1.27222e-14 -7.95139e-16 -3.18055e-15 -3.18055e-15 -0 -20 -3.18055e-15 -6.36111e-15 -24 3.18055e-15 -3.18055e-15 -20 -1.59028e-14 -2.38542e-15 -3.18055e-15 -3.18055e-15 -0 -19.9748 -1.02565 2.81938 -24 -3.18055e-15 1.98785e-16 -20 -6.36111e-15 7.95139e-16 -3.18055e-15 -3.18055e-15 -0 -19.7815 -3.00948 8.30515 -24 3.18055e-15 2.38542e-15 -20 0 1.59028e-15 
384.93 85.3215 274.225 25.1803 0.2706 -115.973 35.1137 -48.2508 49.158 -4.41526 24.7919 -12.012 10.1482 11.0717 53.7806 36.3427 -31.6056 18.8048 -26.989 52.603 30.406 -2.63669 -20.3069 42.2923 -6.71731 4.3105 -21.0855 -1.83045 0.357313 -5.47365 -2.99196 0.246425 -8.68733 -0.524183 -0.520896 2.74867 0.331838 -7.28925 43.8793 -7.94645 3.49658 25.5897 6.00959 -0.401066 -23.9974 57.2204 -56.8507 30.0803 16.4685 -17.8328 134.657 12.5051 -8.97752 9.14848 28.184 10.7294 19.1592 -1.36822e-15 -3.18055e-15 -10 -1.36822e-15 -3.18055e-15 -10 -3.18055e-15 3.18055e-15 1.59028e-15 19.9818 0.871897 2.3964 24 9.54166e-15 7.95139e-15 20 9.54166e-15 6.36111e-15 -3.18055e-15 3.18055e-15 1.59028e-15 20 9.54166e-15 7.15625e-15 24 -9.54166e-15 -4.77083e-15 20 1.27222e-14 3.18055e-15 -3.18055e-15 3.18055e-15 1.59028e-15 19.9748 -1.02565 -2.81938 24 0 6.36111e-15 20 3.18055e-15 1.27222e-14 -3.18055e-15 3.18055e-15 1.59028e-15 19.7815 -3.00948 -8.30515 24 -6.36111e-15 3.18055e-15 20 6.36111e-15 1.27222e-14 14.3681 -14.8627 -42.6775 0.481929 5.64488 -115.922 24.1804 -31.1087 -51.1479 -8.42402 14.5633 -17.8171 -28.184 10.7294 -19.1592 -4.93175e-16 -6.36111e-15 10 -2.10798e-15 -6.36111e-15 10 -3.18055e-15 0 -0 -19.9818 0.871897 -2.3964 -24 3.18055e-15 -0 -20 -6.36111e-15 -7.95139e-16 -3.18055e-15 0 -0 -20 -3.18055e-15 -1.59028e-15 -24 3.18055e-15 1.19271e-15 -20 -1.59028e-14 -7.95139e-16 -3.18055e-15 0 -0 -19.9748 -1.02565 2.81938 -24 0 3.97569e-15 -20 6.36111e-15 -0 -3.18055e-15 0 -0 -19.7815 -3.00948 8.30515 -24 1.27222e-14 -1.98785e-15 -20 0 1.59028e-15 
385.117 85.3481 274.485 25.362 0.327922 -115.89 35.2191 -48.6233 49.2412 -4.32567 24.9978 -11.8473 10.2186 10.9279 53.5698 36.3205 -32.1733 18.84 -26.6568 52.768 30.1877 -2.44082 -19.9748 42.4343 -6.63396 4.27147 -20.998 -1.80756 0.35838 -5.44853 -2.95504 0.25402 -8.65217 -0.524391 -0.520934 2.74919 0.31124 -7.26312 43.8458 -7.95285 3.49457 25.5869 6.02168 -0.386043 -24.0072 57.531 -56.5071 30.045 16.2441 -17.8664 134.535 12.5911 -8.72869 9.58388 28.184 10.7294 19.1592 2.89356e-15 9.54166e-15 -10 -1.92904e-15 -6.36111e-15 -10 3.18055e-15 6.36111e-15 -3.18055e-15 19.9818 0.871897 2.3964 24 -6.36111e-15 1.59028e-15 20 3.18055e-15 3.18055e-15 3.18055e-15 6.36111e-15 -3.18055e-15 20 3.18055e-15 -1.59028e-15 24 -1.27222e-14 -3.18055e-15 20 -3.18055e-15 -6.36111e-15 3.18055e-15 6.36111e-15 -3.18055e-15 19.9748 -1.02565 -2.81938 24 3.18055e-15 4.77083e-15 20 -3.18055e-15 -6.36111e-15 3.18055e-15 6.36111e-15 -3.18055e-15 19.7815 -3.00948 -8.30515 24 -6.36111e-15 -0 20 6.36111e-15 -3.18055e-15 14.4341 -14.7759 -42.6355 0.504794 5.51433 -116.017 24.4242 -30.938 -50.5459 -8.31178 14.652 -17.916 -28.184 10.7294 -19.1592 6.45924e-15 0 10 5.60818e-16 -3.18055e-15 10 -4.77083e-15 3.18055e-15 -3.18055e-15 -19.9818 0.871897 -2.3964 -24 -9.54166e-15 -1.59028e-15 -20 9.54166e-15 7.15625e-15 -4.77083e-15 3.18055e-15 -3.18055e-15 -20 6.36111e-15 -6.36111e-15 -24 -1.27222e-14 2.78299e-15 -20 -9.54166e-15 2.38542e-15 -4.77083e-15 3.18055e-15 -3.18055e-15 -19.9748 -1.02565 2.81938 -24 -9.54166e-15 -1.98785e-16 -20 0 -1.59028e-15 -4.77083e-15 3.18055e-15 -3.18055e-15 -19.7815 -3.00948 8.30515 -24 0 2.78299e-15 -20 0 -1.59028e-15 
